<svg width="59" height="17" viewBox="0 0 59 17" fill="none" xmlns="http://www.w3.org/2000/svg">
<path d="M23.5621 13.6294C23.5621 13.2323 23.4193 12.9221 23.1337 12.7002C22.8473 12.4783 22.3456 12.2486 21.6265 12.0112C20.9081 11.7737 20.3211 11.5434 19.8646 11.3215C18.3805 10.6035 17.6377 9.61699 17.6377 8.36266C17.6377 7.73797 17.8228 7.18677 18.1924 6.70907C18.562 6.23136 19.0852 5.85966 19.762 5.59324C20.4388 5.32754 21.1995 5.19398 22.0435 5.19398C22.8875 5.19398 23.6052 5.33885 24.2583 5.62787C24.9113 5.9169 25.4187 6.32888 25.7812 6.86383C26.1429 7.39806 26.3237 8.00933 26.3237 8.69621H23.57C23.57 8.23687 23.4272 7.88001 23.1408 7.62702C22.8552 7.37404 22.4684 7.24754 21.9803 7.24754C21.4923 7.24754 21.0983 7.35496 20.812 7.56908C20.5263 7.7832 20.3835 8.05597 20.3835 8.38669C20.3835 8.67571 20.5407 8.93788 20.8557 9.1732C21.1701 9.40852 21.7234 9.65091 22.5157 9.90107C23.308 10.1519 23.9583 10.4212 24.4671 10.7109C25.7051 11.4133 26.3237 12.3815 26.3237 13.616C26.3237 14.6025 25.9462 15.377 25.1905 15.9402C24.4355 16.5027 23.3999 16.7847 22.083 16.7847C21.1543 16.7847 20.3139 16.6207 19.5618 16.2928C18.8089 15.9649 18.2427 15.5155 17.8623 14.9452C17.4819 14.375 17.2917 13.7178 17.2917 12.9736H20.0613C20.0613 13.5778 20.2199 14.0237 20.5371 14.3099C20.8543 14.5961 21.3696 14.7396 22.083 14.7396C22.5394 14.7396 22.8997 14.6428 23.1645 14.4492C23.4293 14.2555 23.5621 13.9835 23.5621 13.6323V13.6294Z" fill="white"/>
<path d="M36.7703 7.44753H33.3327V16.6271H30.571V7.44753H27.1958V5.34803H36.7703V7.44753Z" fill="white"/>
<path d="M41.8894 12.638H40.3944V16.6271H37.6328V5.34803H42.1406C43.4991 5.34803 44.5613 5.64483 45.327 6.23772C46.0928 6.83132 46.4761 7.66942 46.4761 8.75274C46.4761 9.53714 46.3146 10.1866 45.9923 10.7031C45.6701 11.219 45.1649 11.6366 44.478 11.9568L46.8693 16.5105V16.6271H43.9111L41.8886 12.638H41.8894ZM40.3944 10.5463H42.1406C42.6652 10.5463 43.0599 10.4106 43.3247 10.1385C43.5895 9.86715 43.7223 9.48767 43.7223 9.00078C43.7223 8.51389 43.5888 8.13229 43.3211 7.85528C43.0534 7.57826 42.6602 7.43976 42.1406 7.43976H40.3944V10.5463Z" fill="white"/>
<path d="M54.9147 14.5198H51.1304L50.4694 16.6271H47.519L51.7203 5.34803H54.3162L58.549 16.6271H55.5836L54.9147 14.5198ZM51.7914 12.421H54.2537L53.0186 8.50894L51.7907 12.421H51.7914Z" fill="white"/>
<path d="M13.1156 5.35439H10.2011V10.1957C10.2011 12.1772 8.5698 13.7828 6.55815 13.7828C4.54649 13.7828 2.91521 12.1765 2.91521 10.1957V1.75111L0 0V10.1965C0 11.5243 0.407641 12.7574 1.10523 13.7835C1.58392 14.4873 2.19969 15.0936 2.91449 15.565C3.95656 16.2519 5.20963 16.6532 6.55743 16.6532C7.90523 16.6532 9.1583 16.2519 10.2004 15.565C10.9152 15.0936 11.5309 14.4873 12.0096 13.7835C12.7072 12.7574 13.1149 11.5236 13.1149 10.1965V5.35439H13.1156Z" fill="white"/>
<path d="M14.5646 16.6532C15.3688 16.6532 16.0207 16.0113 16.0207 15.2194C16.0207 14.4275 15.3688 13.7856 14.5646 13.7856C13.7603 13.7856 13.1084 14.4275 13.1084 15.2194C13.1084 16.0113 13.7603 16.6532 14.5646 16.6532Z" fill="white"/>
</svg>
