<svg width="221" height="24" viewBox="0 0 221 24" fill="none" xmlns="http://www.w3.org/2000/svg">
<path d="M62.7559 18.5988V7.36005H65.9775C66.9701 7.36005 67.8485 7.57629 68.6114 8.00877C69.3743 8.44125 69.9635 9.05605 70.379 9.85387C70.7946 10.6517 71.0049 11.5675 71.0099 12.6021V13.3201C71.0099 14.3801 70.8025 15.3086 70.3869 16.1064C69.9714 16.9043 69.3786 17.5162 68.6078 17.9438C67.837 18.3706 66.9392 18.5896 65.9151 18.5995H62.7559V18.5988ZM64.2608 8.57198V17.3869H65.844C67.0045 17.3869 67.9066 17.0315 68.5526 16.3206C69.1977 15.6096 69.5207 14.5977 69.5207 13.284V12.6275C69.5207 11.3506 69.2164 10.3577 68.6078 9.64965C67.9992 8.94157 67.1351 8.58258 66.017 8.57198H64.2608V8.57198Z" fill="white"/>
<path d="M75.9326 18.7529C74.7829 18.7529 73.8477 18.3812 73.1265 17.6378C72.4052 16.8944 72.0449 15.9001 72.0449 14.6542V14.3921C72.0449 13.5639 72.2057 12.824 72.5272 12.1731C72.8487 11.5223 73.298 11.0128 73.8757 10.6446C74.4527 10.2765 75.0793 10.0927 75.7532 10.0927C76.8555 10.0927 77.7131 10.4503 78.3246 11.1654C78.9361 11.8806 79.2418 12.9045 79.2418 14.2373V14.8316H73.4961C73.5169 15.6549 73.7616 16.3198 74.2288 16.8272C74.6967 17.3339 75.291 17.5876 76.0123 17.5876C76.5247 17.5876 76.9582 17.4844 77.3134 17.2788C77.6687 17.0731 77.9801 16.8004 78.2464 16.4605L79.132 17.1396C78.4215 18.2151 77.355 18.7529 75.934 18.7529H75.9326ZM75.7525 11.2658C75.1668 11.2658 74.6759 11.4757 74.2783 11.8947C73.8815 12.3145 73.6353 12.9017 73.5413 13.6585H77.7899V13.5504C77.7483 12.8247 77.5495 12.2629 77.1943 11.8636C76.839 11.4651 76.3582 11.2651 75.7517 11.2651L75.7525 11.2658Z" fill="white"/>
<path d="M85.1957 16.3834C85.1957 15.9976 85.0479 15.698 84.7529 15.4846C84.4573 15.2712 83.9427 15.0867 83.2085 14.9327C82.4743 14.7786 81.8916 14.5928 81.4602 14.3772C81.0289 14.1617 80.7102 13.9038 80.5036 13.6055C80.2969 13.3073 80.1942 12.9519 80.1942 12.5406C80.1942 11.8566 80.4885 11.2771 81.0763 10.8036C81.664 10.3302 82.4155 10.0934 83.3298 10.0934C84.2915 10.0934 85.0716 10.3379 85.6694 10.8269C86.268 11.316 86.5672 11.9414 86.5672 12.7024H85.1089C85.1089 12.3116 84.9402 11.9746 84.6037 11.6912C84.2663 11.4085 83.8422 11.2665 83.3298 11.2665C82.8174 11.2665 82.3889 11.3796 82.0911 11.6064C81.7932 11.8332 81.6439 12.1286 81.6439 12.494C81.6439 12.8388 81.7825 13.0989 82.0595 13.2734C82.3365 13.4487 82.8367 13.6154 83.5609 13.7751C84.2843 13.9349 84.8713 14.1249 85.3206 14.3461C85.7699 14.5673 86.1029 14.8337 86.3203 15.1447C86.5371 15.4563 86.6455 15.8358 86.6455 16.2831C86.6455 17.0293 86.3426 17.6272 85.7362 18.078C85.1297 18.5282 84.3431 18.7536 83.3764 18.7536C82.6968 18.7536 82.0961 18.6349 81.5736 18.3989C81.0511 18.1621 80.6421 17.8314 80.3471 17.4067C80.0521 16.982 79.9043 16.5227 79.9043 16.0287H81.3547C81.3806 16.5071 81.5758 16.8866 81.9389 17.1671C82.3021 17.4477 82.7815 17.5876 83.3771 17.5876C83.9262 17.5876 84.3661 17.4781 84.6984 17.2597C85.03 17.0413 85.1965 16.7488 85.1965 16.3834H85.1957Z" fill="white"/>
<path d="M87.8394 8.03138C87.8394 7.7996 87.9111 7.60456 88.0547 7.44485C88.1982 7.28514 88.4113 7.20529 88.6934 7.20529C88.9754 7.20529 89.19 7.28514 89.3364 7.44485C89.4828 7.60456 89.556 7.8003 89.556 8.03138C89.556 8.26246 89.4828 8.45609 89.3364 8.61014C89.19 8.76419 88.9762 8.84192 88.6934 8.84192C88.4106 8.84192 88.1982 8.7649 88.0547 8.61014C87.9111 8.45609 87.8394 8.26246 87.8394 8.03138ZM89.4075 18.5981H87.9571V10.2468H89.4075V18.5981Z" fill="white"/>
<path d="M90.7153 14.3532C90.7153 13.0515 91.0211 12.0156 91.6325 11.2467C92.244 10.4771 93.0542 10.0927 94.0626 10.0927C95.0709 10.0927 95.9049 10.4531 96.4848 11.1732L96.5551 10.2468H97.8799V18.3981C97.8799 19.4786 97.5548 20.3302 96.9039 20.9527C96.2529 21.5753 95.3788 21.8869 94.2815 21.8869C93.67 21.8869 93.0715 21.7583 92.4866 21.5011C91.9009 21.2439 91.4545 20.8913 91.1459 20.4439L91.8988 19.5875C92.521 20.3436 93.281 20.7224 94.1803 20.7224C94.8858 20.7224 95.4355 20.5266 95.8302 20.1358C96.225 19.745 96.4223 19.1938 96.4223 18.4836V17.7657C95.8424 18.4243 95.0508 18.7536 94.0468 18.7536C93.0428 18.7536 92.2504 18.36 91.6361 17.5728C91.0218 16.7855 90.7153 15.7121 90.7153 14.3532ZM92.1737 14.515C92.1737 15.457 92.3696 16.1962 92.7614 16.7339C93.1533 17.2717 93.7023 17.541 94.4078 17.541C95.3221 17.541 95.9939 17.1318 96.4223 16.3135V12.5003C95.9781 11.7025 95.3121 11.3039 94.4236 11.3039C93.7181 11.3039 93.1669 11.5739 92.7693 12.1145C92.3725 12.6551 92.1737 13.455 92.1737 14.515Z" fill="white"/>
<path d="M100.86 10.2468L100.907 11.2969C101.555 10.4941 102.402 10.0927 103.447 10.0927C105.24 10.0927 106.144 11.0884 106.159 13.0798V18.5988H104.708V13.072C104.703 12.4699 104.563 12.0247 104.289 11.7364C104.015 11.4481 103.587 11.3039 103.008 11.3039C102.537 11.3039 102.124 11.4276 101.769 11.6742C101.414 11.9216 101.137 12.2452 100.938 12.6466V18.5974H99.4873V10.2468H100.86V10.2468Z" fill="white"/>
<path d="M115.332 13.5893C114.041 13.2239 113.102 12.7752 112.514 12.2424C111.926 11.7096 111.632 11.0524 111.632 10.2701C111.632 9.38535 111.992 8.65325 112.71 8.07378C113.428 7.49502 114.363 7.20529 115.513 7.20529C116.296 7.20529 116.995 7.3544 117.61 7.65261C118.224 7.95082 118.699 8.36281 119.036 8.88786C119.374 9.41291 119.542 9.98672 119.542 10.6093H118.029C118.029 9.92736 117.81 9.39171 117.371 9.00163C116.931 8.61155 116.312 8.41651 115.513 8.41651C114.77 8.41651 114.191 8.57763 113.776 8.89987C113.362 9.22211 113.154 9.66943 113.154 10.2411C113.154 10.6997 113.351 11.0877 113.746 11.405C114.14 11.7223 114.811 12.012 115.76 12.2749C116.709 12.5378 117.451 12.8275 117.986 13.1441C118.522 13.4607 118.919 13.8296 119.178 14.2514C119.436 14.6733 119.566 15.1701 119.566 15.7411C119.566 16.652 119.206 17.3813 118.484 17.9296C117.763 18.478 116.799 18.7515 115.591 18.7515C114.808 18.7515 114.076 18.6038 113.397 18.3077C112.717 18.0116 112.193 17.6067 111.825 17.0922C111.457 16.5778 111.272 15.9934 111.272 15.3404H112.785C112.785 16.0195 113.04 16.5559 113.55 16.9495C114.059 17.3431 114.74 17.5403 115.591 17.5403C116.386 17.5403 116.995 17.3805 117.418 17.0618C117.841 16.7431 118.053 16.3078 118.053 15.7573C118.053 15.2068 117.857 14.7807 117.465 14.4797C117.073 14.1787 116.362 13.8819 115.333 13.5879L115.332 13.5893Z" fill="white"/>
<path d="M123.888 16.5071L125.864 10.2475H127.416L124.006 19.8885C123.478 21.2778 122.64 21.9724 121.49 21.9724L121.216 21.9491L120.675 21.8488V20.6913L121.067 20.7224C121.558 20.7224 121.941 20.6248 122.215 20.4291C122.489 20.2333 122.715 19.8758 122.893 19.3564L123.215 18.5077L120.189 10.2482H121.772L123.889 16.5078L123.888 16.5071Z" fill="white"/>
<path d="M132.852 16.3834C132.852 15.9976 132.705 15.698 132.41 15.4846C132.114 15.2712 131.599 15.0867 130.865 14.9327C130.131 14.7786 129.548 14.5928 129.117 14.3772C128.686 14.1617 128.367 13.9038 128.16 13.6055C127.954 13.3073 127.851 12.9519 127.851 12.5406C127.851 11.8566 128.145 11.2771 128.733 10.8036C129.321 10.3302 130.072 10.0934 130.987 10.0934C131.948 10.0934 132.728 10.3379 133.326 10.8269C133.925 11.316 134.224 11.9414 134.224 12.7024H132.766C132.766 12.3116 132.597 11.9746 132.26 11.6912C131.923 11.4085 131.499 11.2665 130.987 11.2665C130.474 11.2665 130.046 11.3796 129.748 11.6064C129.45 11.8332 129.301 12.1286 129.301 12.494C129.301 12.8388 129.439 13.0989 129.716 13.2734C129.993 13.4487 130.493 13.6154 131.218 13.7751C131.941 13.9349 132.528 14.1249 132.977 14.3461C133.427 14.5673 133.76 14.8337 133.977 15.1447C134.194 15.4563 134.302 15.8358 134.302 16.2831C134.302 17.0293 133.999 17.6272 133.393 18.078C132.786 18.5282 132 18.7536 131.033 18.7536C130.354 18.7536 129.753 18.6349 129.23 18.3989C128.708 18.1621 128.299 17.8314 128.004 17.4067C127.709 16.982 127.561 16.5227 127.561 16.0287H129.011C129.037 16.5071 129.233 16.8866 129.596 17.1671C129.959 17.4477 130.438 17.5876 131.034 17.5876C131.583 17.5876 132.023 17.4781 132.355 17.2597C132.687 17.0413 132.853 16.7488 132.853 16.3834H132.852Z" fill="white"/>
<path d="M137.704 8.2243V10.2468H139.287V11.3506H137.704V16.5361C137.704 16.871 137.774 17.1219 137.916 17.2894C138.057 17.4569 138.297 17.5403 138.637 17.5403C138.804 17.5403 139.034 17.5092 139.327 17.4477V18.5988C138.945 18.7013 138.574 18.7522 138.213 18.7522C137.565 18.7522 137.077 18.5593 136.747 18.1734C136.418 17.7876 136.253 17.2392 136.253 16.529V11.3499H134.709V10.2461H136.253V8.22359H137.704V8.2243Z" fill="white"/>
<path d="M143.595 18.7529C142.445 18.7529 141.51 18.3812 140.789 17.6378C140.067 16.8944 139.707 15.9001 139.707 14.6542V14.3921C139.707 13.5639 139.868 12.824 140.189 12.1731C140.511 11.5223 140.96 11.0128 141.538 10.6446C142.115 10.2765 142.741 10.0927 143.415 10.0927C144.518 10.0927 145.375 10.4503 145.987 11.1654C146.598 11.8806 146.904 12.9045 146.904 14.2373V14.8316H141.158C141.179 15.6549 141.424 16.3198 141.891 16.8272C142.359 17.3339 142.953 17.5876 143.674 17.5876C144.187 17.5876 144.62 17.4844 144.976 17.2788C145.331 17.0731 145.642 16.8004 145.908 16.4605L146.794 17.1396C146.084 18.2151 145.017 18.7529 143.596 18.7529H143.595ZM143.415 11.2658C142.829 11.2658 142.338 11.4757 141.94 11.8947C141.544 12.3145 141.297 12.9017 141.203 13.6585H145.452V13.5504C145.41 12.8247 145.212 12.2629 144.856 11.8636C144.501 11.4651 144.02 11.2651 143.414 11.2651L143.415 11.2658Z" fill="white"/>
<path d="M149.451 10.2468L149.491 11.1732C150.113 10.4531 150.951 10.0927 152.007 10.0927C153.193 10.0927 154.001 10.54 154.429 11.4361C154.711 11.0347 155.079 10.7103 155.531 10.4637C155.983 10.2164 156.517 10.0934 157.134 10.0934C158.994 10.0934 159.94 11.0637 159.972 13.0035V18.5995H158.521V13.0883C158.521 12.4911 158.383 12.0452 158.106 11.7491C157.829 11.453 157.364 11.3054 156.711 11.3054C156.172 11.3054 155.725 11.4636 155.37 11.7802C155.015 12.0968 154.808 12.5222 154.751 13.0579V18.6002H153.292V13.1278C153.292 11.9138 152.689 11.3061 151.482 11.3061C150.531 11.3061 149.88 11.7046 149.53 12.5024V18.6002H148.079V10.2468H149.451Z" fill="white"/>
<path d="M165.32 7.125H169.086C169.94 7.125 170.661 7.25521 171.25 7.51562C171.844 7.77604 172.294 8.16146 172.602 8.67188C172.914 9.17708 173.07 9.79948 173.07 10.5391C173.07 11.0599 172.964 11.5365 172.75 11.9688C172.542 12.3958 172.24 12.7604 171.844 13.0625C171.453 13.3594 170.984 13.5807 170.438 13.7266L170.016 13.8906H166.477L166.461 12.6641H169.133C169.674 12.6641 170.125 12.5703 170.484 12.3828C170.844 12.1901 171.115 11.9323 171.297 11.6094C171.479 11.2865 171.57 10.9297 171.57 10.5391C171.57 10.1016 171.484 9.71875 171.312 9.39062C171.141 9.0625 170.87 8.8099 170.5 8.63281C170.135 8.45052 169.664 8.35938 169.086 8.35938H166.828V18.5H165.32V7.125ZM171.969 18.5L169.203 13.3438L170.773 13.3359L173.578 18.4062V18.5H171.969ZM178.469 18.6562C177.88 18.6562 177.346 18.5573 176.867 18.3594C176.393 18.1562 175.984 17.8724 175.641 17.5078C175.302 17.1432 175.042 16.7109 174.859 16.2109C174.677 15.7109 174.586 15.1641 174.586 14.5703V14.2422C174.586 13.5547 174.688 12.9427 174.891 12.4062C175.094 11.8646 175.37 11.4062 175.719 11.0312C176.068 10.6562 176.464 10.3724 176.906 10.1797C177.349 9.98698 177.807 9.89062 178.281 9.89062C178.885 9.89062 179.406 9.99479 179.844 10.2031C180.286 10.4115 180.648 10.7031 180.93 11.0781C181.211 11.4479 181.419 11.8854 181.555 12.3906C181.69 12.8906 181.758 13.4375 181.758 14.0312V14.6797H175.445V13.5H180.312V13.3906C180.292 13.0156 180.214 12.651 180.078 12.2969C179.948 11.9427 179.74 11.651 179.453 11.4219C179.167 11.1927 178.776 11.0781 178.281 11.0781C177.953 11.0781 177.651 11.1484 177.375 11.2891C177.099 11.4245 176.862 11.6276 176.664 11.8984C176.466 12.1693 176.312 12.5 176.203 12.8906C176.094 13.2812 176.039 13.7318 176.039 14.2422V14.5703C176.039 14.9714 176.094 15.349 176.203 15.7031C176.318 16.0521 176.482 16.3594 176.695 16.625C176.914 16.8906 177.177 17.099 177.484 17.25C177.797 17.401 178.151 17.4766 178.547 17.4766C179.057 17.4766 179.49 17.3724 179.844 17.1641C180.198 16.9557 180.508 16.6771 180.773 16.3281L181.648 17.0234C181.466 17.2995 181.234 17.5625 180.953 17.8125C180.672 18.0625 180.326 18.2656 179.914 18.4219C179.508 18.5781 179.026 18.6562 178.469 18.6562ZM188.43 17.0547V12.7031C188.43 12.3698 188.362 12.0807 188.227 11.8359C188.096 11.5859 187.898 11.3932 187.633 11.2578C187.367 11.1224 187.039 11.0547 186.648 11.0547C186.284 11.0547 185.964 11.1172 185.688 11.2422C185.417 11.3672 185.203 11.5312 185.047 11.7344C184.896 11.9375 184.82 12.1562 184.82 12.3906H183.375C183.375 12.0885 183.453 11.7891 183.609 11.4922C183.766 11.1953 183.99 10.9271 184.281 10.6875C184.578 10.4427 184.932 10.25 185.344 10.1094C185.76 9.96354 186.224 9.89062 186.734 9.89062C187.349 9.89062 187.891 9.99479 188.359 10.2031C188.833 10.4115 189.203 10.7266 189.469 11.1484C189.74 11.5651 189.875 12.0885 189.875 12.7188V16.6562C189.875 16.9375 189.898 17.237 189.945 17.5547C189.997 17.8724 190.073 18.1458 190.172 18.375V18.5H188.664C188.591 18.3333 188.534 18.112 188.492 17.8359C188.451 17.5547 188.43 17.2943 188.43 17.0547ZM188.68 13.375L188.695 14.3906H187.234C186.823 14.3906 186.456 14.4245 186.133 14.4922C185.81 14.5547 185.539 14.651 185.32 14.7812C185.102 14.9115 184.935 15.0755 184.82 15.2734C184.706 15.4661 184.648 15.6927 184.648 15.9531C184.648 16.2188 184.708 16.4609 184.828 16.6797C184.948 16.8984 185.128 17.0729 185.367 17.2031C185.612 17.3281 185.911 17.3906 186.266 17.3906C186.708 17.3906 187.099 17.2969 187.438 17.1094C187.776 16.9219 188.044 16.6927 188.242 16.4219C188.445 16.151 188.555 15.888 188.57 15.6328L189.188 16.3281C189.151 16.5469 189.052 16.7891 188.891 17.0547C188.729 17.3203 188.513 17.5755 188.242 17.8203C187.977 18.0599 187.659 18.2604 187.289 18.4219C186.924 18.5781 186.513 18.6562 186.055 18.6562C185.482 18.6562 184.979 18.5443 184.547 18.3203C184.12 18.0964 183.786 17.7969 183.547 17.4219C183.312 17.0417 183.195 16.6172 183.195 16.1484C183.195 15.6953 183.284 15.2969 183.461 14.9531C183.638 14.6042 183.893 14.3151 184.227 14.0859C184.56 13.8516 184.961 13.6745 185.43 13.5547C185.898 13.4349 186.422 13.375 187 13.375H188.68ZM195.531 17.4688C195.875 17.4688 196.193 17.3984 196.484 17.2578C196.776 17.1172 197.016 16.9245 197.203 16.6797C197.391 16.4297 197.497 16.1458 197.523 15.8281H198.898C198.872 16.3281 198.703 16.7943 198.391 17.2266C198.083 17.6536 197.68 18 197.18 18.2656C196.68 18.526 196.13 18.6562 195.531 18.6562C194.896 18.6562 194.341 18.5443 193.867 18.3203C193.398 18.0964 193.008 17.7891 192.695 17.3984C192.388 17.0078 192.156 16.5599 192 16.0547C191.849 15.5443 191.773 15.0052 191.773 14.4375V14.1094C191.773 13.5417 191.849 13.0052 192 12.5C192.156 11.9896 192.388 11.5391 192.695 11.1484C193.008 10.7578 193.398 10.4505 193.867 10.2266C194.341 10.0026 194.896 9.89062 195.531 9.89062C196.193 9.89062 196.771 10.026 197.266 10.2969C197.76 10.5625 198.148 10.9271 198.43 11.3906C198.716 11.849 198.872 12.3698 198.898 12.9531H197.523C197.497 12.6042 197.398 12.2891 197.227 12.0078C197.06 11.7266 196.831 11.5026 196.539 11.3359C196.253 11.1641 195.917 11.0781 195.531 11.0781C195.089 11.0781 194.716 11.1667 194.414 11.3438C194.117 11.5156 193.88 11.75 193.703 12.0469C193.531 12.3385 193.406 12.6641 193.328 13.0234C193.255 13.3776 193.219 13.7396 193.219 14.1094V14.4375C193.219 14.8073 193.255 15.1719 193.328 15.5312C193.401 15.8906 193.523 16.2161 193.695 16.5078C193.872 16.7995 194.109 17.0339 194.406 17.2109C194.708 17.3828 195.083 17.4688 195.531 17.4688ZM204.062 10.0469V11.1562H199.492V10.0469H204.062ZM201.039 7.99219H202.484V16.4062C202.484 16.6927 202.529 16.9089 202.617 17.0547C202.706 17.2005 202.82 17.2969 202.961 17.3438C203.102 17.3906 203.253 17.4141 203.414 17.4141C203.534 17.4141 203.659 17.4036 203.789 17.3828C203.924 17.3568 204.026 17.3359 204.094 17.3203L204.102 18.5C203.987 18.5365 203.836 18.5703 203.648 18.6016C203.466 18.638 203.245 18.6562 202.984 18.6562C202.63 18.6562 202.305 18.5859 202.008 18.4453C201.711 18.3047 201.474 18.0703 201.297 17.7422C201.125 17.4089 201.039 16.9609 201.039 16.3984V7.99219ZM205.781 17.7344C205.781 17.4896 205.857 17.2839 206.008 17.1172C206.164 16.9453 206.388 16.8594 206.68 16.8594C206.971 16.8594 207.193 16.9453 207.344 17.1172C207.5 17.2839 207.578 17.4896 207.578 17.7344C207.578 17.974 207.5 18.1771 207.344 18.3438C207.193 18.5104 206.971 18.5938 206.68 18.5938C206.388 18.5938 206.164 18.5104 206.008 18.3438C205.857 18.1771 205.781 17.974 205.781 17.7344ZM210.016 10.0469H211.469V19.5078C211.469 20.0234 211.385 20.4609 211.219 20.8203C211.057 21.1797 210.812 21.4505 210.484 21.6328C210.161 21.8203 209.753 21.9141 209.258 21.9141C209.128 21.9141 208.977 21.901 208.805 21.875C208.628 21.849 208.479 21.8177 208.359 21.7812L208.367 20.6172C208.466 20.638 208.578 20.6536 208.703 20.6641C208.828 20.6797 208.938 20.6875 209.031 20.6875C209.245 20.6875 209.424 20.6484 209.57 20.5703C209.716 20.4922 209.826 20.3672 209.898 20.1953C209.977 20.0234 210.016 19.7943 210.016 19.5078V10.0469ZM209.867 7.80469C209.867 7.57031 209.94 7.3724 210.086 7.21094C210.232 7.04948 210.443 6.96875 210.719 6.96875C211 6.96875 211.214 7.04948 211.359 7.21094C211.505 7.3724 211.578 7.57031 211.578 7.80469C211.578 8.02865 211.505 8.22135 211.359 8.38281C211.214 8.53906 211 8.61719 210.719 8.61719C210.443 8.61719 210.232 8.53906 210.086 8.38281C209.94 8.22135 209.867 8.02865 209.867 7.80469ZM218.727 16.2578C218.727 16.0495 218.68 15.8568 218.586 15.6797C218.497 15.4974 218.312 15.3333 218.031 15.1875C217.755 15.0365 217.339 14.9062 216.781 14.7969C216.312 14.6979 215.888 14.5807 215.508 14.4453C215.133 14.3099 214.812 14.1458 214.547 13.9531C214.286 13.7604 214.086 13.5339 213.945 13.2734C213.805 13.013 213.734 12.7083 213.734 12.3594C213.734 12.026 213.807 11.7109 213.953 11.4141C214.104 11.1172 214.315 10.8542 214.586 10.625C214.862 10.3958 215.193 10.2161 215.578 10.0859C215.964 9.95573 216.393 9.89062 216.867 9.89062C217.544 9.89062 218.122 10.0104 218.602 10.25C219.081 10.4896 219.448 10.8099 219.703 11.2109C219.958 11.6068 220.086 12.0469 220.086 12.5312H218.641C218.641 12.2969 218.57 12.0703 218.43 11.8516C218.294 11.6276 218.094 11.4427 217.828 11.2969C217.568 11.151 217.247 11.0781 216.867 11.0781C216.466 11.0781 216.141 11.1406 215.891 11.2656C215.646 11.3854 215.466 11.5391 215.352 11.7266C215.242 11.9141 215.188 12.112 215.188 12.3203C215.188 12.4766 215.214 12.6172 215.266 12.7422C215.323 12.862 215.422 12.974 215.562 13.0781C215.703 13.1771 215.901 13.2708 216.156 13.3594C216.411 13.4479 216.737 13.5365 217.133 13.625C217.826 13.7812 218.396 13.9688 218.844 14.1875C219.292 14.4062 219.625 14.6745 219.844 14.9922C220.062 15.3099 220.172 15.6953 220.172 16.1484C220.172 16.5182 220.094 16.8568 219.938 17.1641C219.786 17.4714 219.565 17.737 219.273 17.9609C218.987 18.1797 218.643 18.3516 218.242 18.4766C217.846 18.5964 217.401 18.6562 216.906 18.6562C216.161 18.6562 215.531 18.5234 215.016 18.2578C214.5 17.9922 214.109 17.6484 213.844 17.2266C213.578 16.8047 213.445 16.3594 213.445 15.8906H214.898C214.919 16.2865 215.034 16.6016 215.242 16.8359C215.451 17.0651 215.706 17.2292 216.008 17.3281C216.31 17.4219 216.609 17.4688 216.906 17.4688C217.302 17.4688 217.633 17.4167 217.898 17.3125C218.169 17.2083 218.375 17.0651 218.516 16.8828C218.656 16.7005 218.727 16.4922 218.727 16.2578Z" fill="white"/>
<path d="M23.5624 15.6294C23.5624 15.2323 23.4195 14.9221 23.1339 14.7002C22.8475 14.4783 22.3459 14.2486 21.6268 14.0112C20.9084 13.7737 20.3213 13.5434 19.8649 13.3215C18.3807 12.6035 17.6379 11.617 17.6379 10.3627C17.6379 9.73797 17.8231 9.18677 18.1927 8.70906C18.5623 8.23136 19.0855 7.85965 19.7622 7.59324C20.439 7.32754 21.1998 7.19398 22.0437 7.19398C22.8877 7.19398 23.6054 7.33884 24.2585 7.62787C24.9116 7.91689 25.419 8.32888 25.7814 8.86382C26.1431 9.39806 26.324 10.0093 26.324 10.6962H23.5702C23.5702 10.2369 23.4274 9.88001 23.1411 9.62702C22.8554 9.37404 22.4686 9.24754 21.9806 9.24754C21.4926 9.24754 21.0986 9.35496 20.8122 9.56907C20.5266 9.78319 20.3838 10.056 20.3838 10.3867C20.3838 10.6757 20.5409 10.9379 20.856 11.1732C21.1703 11.4085 21.7237 11.6509 22.516 11.9011C23.3083 12.1519 23.9585 12.4212 24.4673 12.7109C25.7053 13.4133 26.324 14.3815 26.324 15.616C26.324 16.6025 25.9465 17.377 25.1908 17.9402C24.4358 18.5027 23.4002 18.7847 22.0832 18.7847C21.1545 18.7847 20.3141 18.6207 19.562 18.2928C18.8092 17.9649 18.2429 17.5155 17.8625 16.9452C17.4822 16.375 17.292 15.7178 17.292 14.9736H20.0615C20.0615 15.5778 20.2201 16.0237 20.5373 16.3099C20.8545 16.5961 21.3698 16.7396 22.0832 16.7396C22.5397 16.7396 22.8999 16.6428 23.1648 16.4492C23.4296 16.2555 23.5624 15.9835 23.5624 15.6323V15.6294Z" fill="white"/>
<path d="M36.7703 9.44753H33.3327V18.6271H30.571V9.44753H27.1958V7.34803H36.7703V9.44753V9.44753Z" fill="white"/>
<path d="M41.8899 14.638H40.3949V18.6271H37.6333V7.34803H42.141C43.4996 7.34803 44.5618 7.64483 45.3275 8.23772C46.0933 8.83132 46.4765 9.66942 46.4765 10.7527C46.4765 11.5371 46.3151 12.1866 45.9928 12.7031C45.6706 13.219 45.1653 13.6366 44.4785 13.9567L46.8698 18.5105V18.6271H43.9116L41.8891 14.638H41.8899ZM40.3949 12.5462H42.141C42.6657 12.5462 43.0604 12.4106 43.3252 12.1385C43.59 11.8671 43.7228 11.4877 43.7228 11.0008C43.7228 10.5139 43.5893 10.1323 43.3216 9.85527C43.0539 9.57826 42.6606 9.43975 42.141 9.43975H40.3949V12.5462V12.5462Z" fill="white"/>
<path d="M54.9147 16.5198H51.1304L50.4694 18.6271H47.519L51.7203 7.34803H54.3162L58.549 18.6271H55.5836L54.9147 16.5198V16.5198ZM51.7914 14.421H54.2537L53.0186 10.5089L51.7907 14.421H51.7914Z" fill="white"/>
<path d="M13.1156 7.35439H10.2011V12.1957C10.2011 14.1772 8.5698 15.7828 6.55815 15.7828C4.54649 15.7828 2.91521 14.1765 2.91521 12.1957V3.75111L0 2V12.1965C0 13.5243 0.407641 14.7574 1.10523 15.7835C1.58392 16.4873 2.19969 17.0936 2.91449 17.565C3.95656 18.2519 5.20963 18.6532 6.55743 18.6532C7.90523 18.6532 9.1583 18.2519 10.2004 17.565C10.9152 17.0936 11.5309 16.4873 12.0096 15.7835C12.7072 14.7574 13.1149 13.5236 13.1149 12.1965V7.35439H13.1156Z" fill="white"/>
<path d="M14.5646 18.6532C15.3688 18.6532 16.0207 18.0113 16.0207 17.2194C16.0207 16.4275 15.3688 15.7856 14.5646 15.7856C13.7603 15.7856 13.1084 16.4275 13.1084 17.2194C13.1084 18.0113 13.7603 18.6532 14.5646 18.6532Z" fill="white"/>
<rect width="0.001" height="24" transform="translate(60)" fill="white"/>
</svg>
