<svg width="1920" height="200" viewBox="0 0 1920 200" fill="none" xmlns="http://www.w3.org/2000/svg">
<mask id="mask0_700_180" style="mask-type:alpha" maskUnits="userSpaceOnUse" x="0" y="0" width="1920" height="200">
<rect width="1920" height="200" fill="#1A1B1E"/>
</mask>
<g mask="url(#mask0_700_180)">
<rect width="1920" height="200" fill="black"/>
<path d="M346.118 147.135C365.474 134.191 382.129 117.56 395.091 98.232C414.603 69.1622 425 34.9692 425 3.05176e-05L346.098 2.70687e-05C345.962 54.278 301.866 98.232 247.49 98.232C193.114 98.232 148.999 54.2779 148.882 1.84481e-05L70 1.5e-05C70 34.9692 80.3972 69.1622 99.9088 98.232C112.871 117.56 129.526 134.191 148.882 147.135C208.583 186.955 286.416 186.955 346.118 147.135Z" fill="#0354FF"/>
<path d="M1190.88 52.8655C1171.53 65.8091 1154.87 82.4399 1141.91 101.768C1122.4 130.838 1112 165.031 1112 200L1190.9 200C1191.04 145.722 1235.13 101.768 1289.51 101.768C1343.89 101.768 1388 145.722 1388.12 200L1467 200C1467 165.031 1456.6 130.838 1437.09 101.768C1424.13 82.4399 1407.47 65.8091 1388.12 52.8655C1328.42 13.0448 1250.58 13.0448 1190.88 52.8655Z" fill="white"/>
<path d="M1672 112.868C1672.21 112.868 1672.45 112.868 1672.66 112.868C1727.08 112.848 1771.19 156.993 1771.19 211.456L1771.19 212L1850 212L1850 211.456C1850.06 176.346 1839.65 142.032 1820.12 112.868C1807.17 93.5153 1790.53 76.8638 1771.19 63.9039C1741.18 43.8326 1706.58 33.8844 1672.02 34.001L1672.02 112.868L1672 112.868Z" fill="#0354FF"/>
<path d="M959.132 -8C959.132 -7.78643 959.132 -7.55345 959.132 -7.33988C959.152 47.0813 915.007 91.1929 860.544 91.1929H860V170H860.544C895.654 170.058 929.968 159.651 959.132 140.12C978.485 127.17 995.136 110.531 1008.1 91.1929C1028.17 61.1768 1038.12 26.5787 1038 -7.98058H959.132V-8Z" fill="#0354FF"/>
<path d="M513.868 212C513.868 211.786 513.868 211.553 513.868 211.34C513.848 156.919 557.993 112.807 612.456 112.807L613 112.807L613 34.0002L612.456 34.0002C577.346 33.942 543.032 44.3486 513.868 63.8804C494.515 76.8304 477.864 93.4694 464.904 112.807C444.833 142.823 434.884 177.421 435.001 211.981L513.868 211.981L513.868 212Z" fill="white"/>
<circle cx="1569.5" cy="71.5" r="42.5" fill="#0354FF"/>
<circle cx="715.5" cy="71.5" r="42.5" fill="white"/>
</g>
</svg>
